<?xml version="1.0"?><svg width="657.14105" height="437.39487" xmlns="http://www.w3.org/2000/svg">
 <title>super hero red cape</title>

 <metadata id="metadata7">image/svg+xml</metadata>
 <g>
  <title>Layer 1</title>
  <path id="path2405" d="m437.449585,135.356628c-87.917175,-45.942955 -198.743774,-22.211731 -284.251343,36.075897c-46.053391,31.393066 -103.716022,52.996674 -136.341022,98.038177c-37.94282,52.383118 43.372231,51.405457 79.503872,37.202698c64.206642,-25.238525 34.772774,85.123047 88.124306,82.277954c61.216187,-3.264526 92.164108,2.237488 135.158218,-49.779785c36.314636,-43.935974 110.646759,-23.745789 137.287323,-84.518982c9.486755,-23.045349 18.575317,-47.274292 34.569214,-66.616058" stroke-dashoffset="0" stroke-miterlimit="4" marker-end="none" marker-mid="none" marker-start="none" stroke-width="10" stroke="#ffffff" fill-rule="evenodd" fill="#ff0000"/>
  <path id="path2398" d="m336.314514,122.142906c-56.739899,7.11277 -210.916565,69.582832 -155.553772,115.740639c55.362793,46.157776 191.831024,-89.565796 158.786133,-31.000427c-35.600647,63.09491 -226.509338,110.14679 -132.299408,194.759399c46.032532,41.34314 159.993713,-179.824951 144.217377,-27.42981c-11.791534,113.903015 120.977661,40.602417 98.855408,-49.648193c-24.489685,-99.908936 116.122253,-142.707184 179.073059,-207.217438c69.835693,-71.565708 -40.000671,-116.470886 -76.927185,-35.756866c-18.943909,41.407593 -82.38562,28.48056 -124.723022,34.838409" stroke-dashoffset="0" stroke-miterlimit="4" marker-end="none" marker-mid="none" marker-start="none" stroke-width="10" stroke="#ffffff" fill-rule="evenodd" fill="#000000"/>
  <path d="m485.885956,85.000031a85.714287,80 0 1 1 -171.428589,0a85.714287,80 0 1 1 171.428589,0z" id="path2396" stroke-dashoffset="0" stroke-miterlimit="4" stroke-width="10" stroke="#ffffff" fill="#000000"/>
 </g>
</svg>